<?xml version="1.0" encoding="iso-8859-1"?>
<!-- Generator: Adobe Illustrator 19.0.0, SVG Export Plug-In . SVG Version: 6.00 Build 0)  -->
<svg version="1.1" id="Capa_1" xmlns="http://www.w3.org/2000/svg" xmlns:xlink="http://www.w3.org/1999/xlink" x="0px" y="0px"
	 viewBox="0 0 512 512" style="enable-background:new 0 0 512 512;" xml:space="preserve">
<path style="fill:#C6D5DB;" d="M256,486c-8.284,0-15-6.716-15-15V290c0-8.284,6.716-15,15-15s15,6.716,15,15v181
	C271,479.284,264.284,486,256,486z"/>
<path style="fill:#9CB5BF;" d="M256,275v211c8.284,0,15-6.716,15-15V290C271,281.716,264.284,275,256,275z"/>
<g>
	<path style="fill:#40C4FF;" d="M96.656,430.331C35.229,381.384,0,308.293,0,229.799C0,151.307,35.228,78.217,96.65,29.27
		c6.479-5.163,15.917-4.096,21.079,2.383c5.163,6.479,4.097,15.916-2.382,21.079C61.107,95.954,30,160.493,30,229.799
		c0,69.308,31.109,133.848,85.352,177.071c6.479,5.163,7.546,14.6,2.384,21.079C112.571,434.429,103.132,435.493,96.656,430.331z"/>
	<path style="fill:#40C4FF;" d="M146.659,367.736C104.297,334.04,80,283.763,80,229.799c0-53.965,24.297-104.242,66.66-137.938
		c6.483-5.157,15.92-4.082,21.077,2.402s4.082,15.92-2.401,21.077C130.169,143.311,110,185.03,110,229.799
		c0,44.768,20.169,86.487,55.335,114.458c6.483,5.157,7.559,14.593,2.401,21.077C162.581,371.815,153.146,372.894,146.659,367.736z"
		/>
</g>
<path style="fill:#FF5252;" d="M256,305c-41.355,0-75-33.645-75-75s33.645-75,75-75s75,33.645,75,75S297.355,305,256,305z"/>
<g>
	<path style="fill:#32A4EA;" d="M394.271,427.944c-5.163-6.479-4.097-15.916,2.382-21.079C450.893,363.642,482,299.104,482,229.799
		S450.893,95.956,396.653,52.732c-6.479-5.163-7.545-14.6-2.382-21.079c5.163-6.479,14.599-7.545,21.079-2.383
		C476.772,78.218,512,151.308,512,229.799s-35.228,151.581-96.649,200.528C408.876,435.486,399.437,434.427,394.271,427.944z"/>
	<path style="fill:#32A4EA;" d="M344.263,365.335c-5.157-6.483-4.082-15.92,2.401-21.077C381.831,316.286,402,274.568,402,229.799
		c0-44.768-20.169-86.487-55.335-114.458c-6.483-5.157-7.559-14.593-2.401-21.077s14.593-7.558,21.077-2.402
		C407.703,125.558,432,175.834,432,229.799s-24.297,104.242-66.66,137.938C358.86,372.891,349.422,371.821,344.263,365.335z"/>
</g>
<path style="fill:#EA3939;" d="M256,155v150c41.355,0,75-33.645,75-75S297.355,155,256,155z"/>
<g>
</g>
<g>
</g>
<g>
</g>
<g>
</g>
<g>
</g>
<g>
</g>
<g>
</g>
<g>
</g>
<g>
</g>
<g>
</g>
<g>
</g>
<g>
</g>
<g>
</g>
<g>
</g>
<g>
</g>
</svg>
